<svg width="512" height="512" viewBox="0 0 512 512" fill="none" xmlns="http://www.w3.org/2000/svg">
  <!-- Fondo redondeado con degradado -->
  <rect width="512" height="512" rx="120" fill="url(#grad)" />
  
  <!-- Sombra suave para el corazón -->
  <path d="M256 390l-22-20C156 300 100 250 100 186c0-52 40-92 92-92 30 0 58 14 76 36 18-22 46-36 76-36 52 0 92 40 92 92 0 64-56 114-134 184l-22 20z" fill="black" fill-opacity="0.1"/>
  
  <!-- Corazón Principal -->
  <path d="M256 380l-20-18C158 295 106 248 106 188c0-48 38-86 86-86 28 0 55 13 72 34 17-21 44-34 72-34 48 0 86 38 86 86 0 60-52 107-130 174l-20 18z" fill="white"/>
  
  <!-- Línea de Pulso (Electro) -->
  <path d="M160 200h30l15-40 25 80 20-60 15 20h40" stroke="#e74c3c" stroke-width="12" stroke-linecap="round" stroke-linejoin="round"/>
  
  <defs>
    <linearGradient id="grad" x1="0" y1="0" x2="512" y2="512" gradientUnits="userSpaceOnUse">
      <stop stop-color="#ef4444"/>
      <stop offset="1" stop-color="#e74c3c"/>
    </linearGradient>
  </defs>
</svg>
